<?xml version="1.0" standalone="no"?>
<!DOCTYPE svg PUBLIC "-//W3C//DTD SVG 20010904//EN"
 "http://www.w3.org/TR/2001/REC-SVG-20010904/DTD/svg10.dtd">
<svg version="1.0" xmlns="http://www.w3.org/2000/svg"
 width="491.000000pt" height="508.000000pt" viewBox="0 0 491.000000 508.000000"
 preserveAspectRatio="xMidYMid meet">

<g transform="translate(0.000000,508.000000) scale(0.100000,-0.100000)"
fill="#000000" stroke="none">
<path d="M2283 5008 c-26 -29 -56 -90 -124 -253 -57 -139 -86 -195 -100 -195
-4 0 -26 24 -47 53 -76 102 -239 237 -288 237 -25 0 -52 -22 -64 -54 -4 -12
-22 -89 -39 -171 -18 -85 -39 -161 -50 -175 -14 -20 -31 -27 -77 -33 -179 -22
-213 -30 -261 -52 -100 -49 -195 -177 -278 -375 -47 -112 -55 -157 -75 -455
-11 -159 -32 -373 -45 -475 -30 -225 -45 -382 -45 -475 0 -38 -4 -75 -8 -82
-13 -21 -84 20 -144 85 -70 76 -122 178 -139 273 -12 68 -12 73 6 83 81 47
204 207 225 296 10 43 10 54 -4 75 -29 44 -66 34 -141 -36 -36 -34 -68 -59
-71 -56 -3 3 -1 22 5 44 24 84 6 190 -37 224 -14 10 -29 19 -33 19 -20 0 -70
-60 -102 -121 l-35 -67 -43 44 c-74 75 -147 77 -191 6 -19 -31 -23 -51 -22
-117 0 -99 21 -143 110 -236 l64 -66 0 -64 c1 -134 52 -281 155 -440 88 -136
219 -236 351 -269 l50 -13 0 -291 c-1 -246 2 -301 16 -353 45 -161 132 -266
282 -338 95 -45 225 -85 276 -85 17 0 30 -3 30 -6 0 -4 -25 -33 -55 -66 -61
-66 -90 -117 -126 -223 -30 -89 -29 -178 3 -335 l25 -115 -61 -15 c-192 -48
-267 -211 -137 -297 48 -32 104 -30 249 12 133 38 224 79 261 119 23 24 23 28
12 84 -14 70 -26 174 -25 217 4 257 47 399 158 521 l51 57 195 -12 c278 -16
367 -8 810 76 74 14 159 28 188 30 53 6 53 5 99 -42 84 -88 163 -289 163 -415
0 -101 -37 -213 -119 -357 -55 -98 -21 -124 175 -131 98 -3 152 0 215 12 149
31 198 63 206 138 9 82 -60 148 -175 168 l-68 12 13 72 c7 39 13 150 13 246 1
163 -9 246 -41 368 -3 9 28 27 84 52 123 53 189 96 255 162 135 136 203 322
168 458 -34 132 -82 180 -182 180 -55 0 -82 -4 -269 -45 -152 -32 -207 -44
-490 -99 -354 -69 -432 -84 -535 -101 -52 -9 -108 -18 -125 -21 -79 -13 -187
-24 -359 -35 -276 -17 -395 -4 -418 46 -18 41 29 122 114 194 40 34 77 61 84
61 6 0 14 -18 18 -41 15 -93 57 -129 152 -129 40 0 67 6 90 20 39 25 79 100
95 182 13 64 7 61 117 76 34 5 64 6 66 3 2 -3 11 -32 20 -63 29 -103 95 -150
178 -128 69 19 133 97 152 187 7 30 11 32 59 38 70 9 111 3 114 -15 8 -66 17
-93 40 -120 49 -59 140 -77 201 -40 36 22 75 96 87 163 8 42 5 41 134 57 147
18 149 17 162 -36 7 -25 23 -59 36 -75 21 -24 32 -29 71 -29 76 0 129 45 151
129 6 19 18 27 59 37 114 29 175 97 233 261 l33 92 55 7 c83 9 195 50 301 110
262 146 340 239 340 405 0 49 3 60 21 69 39 22 100 84 120 123 58 113 55 304
-4 326 -37 14 -56 0 -123 -85 -36 -46 -69 -82 -74 -79 -4 3 -11 33 -14 67 -12
108 -26 157 -53 178 -35 27 -57 25 -94 -8 -23 -21 -34 -42 -44 -92 -8 -36 -14
-80 -15 -99 l0 -34 -22 20 c-36 33 -91 63 -115 63 -28 0 -59 -33 -66 -68 -8
-41 12 -132 38 -177 13 -22 51 -67 84 -100 38 -36 61 -68 61 -81 0 -37 -76
-139 -133 -178 -73 -51 -196 -85 -210 -58 -2 4 2 75 9 157 18 217 17 349 -7
583 -44 441 -111 583 -329 696 -103 52 -475 166 -545 166 -24 0 -28 7 -40 70
-15 82 -59 210 -97 280 -94 177 -149 174 -222 -13 -32 -83 -113 -238 -136
-261 -6 -6 -22 19 -44 65 -57 126 -147 241 -240 310 -49 37 -103 39 -133 7z
m123 -130 c53 -49 135 -168 159 -232 10 -26 16 -48 14 -51 -13 -12 -379 -43
-379 -31 0 4 11 32 23 64 13 31 44 110 68 174 24 66 50 118 57 118 7 0 33 -19
58 -42z m585 -65 c50 -107 100 -235 94 -241 -7 -7 -252 12 -260 20 -3 3 10 38
29 79 19 41 48 104 64 142 17 37 33 67 36 67 3 0 20 -30 37 -67z m-1173 -142
c56 -47 132 -138 132 -158 0 -5 -44 -17 -98 -27 -54 -9 -109 -20 -122 -23 -23
-6 -23 -5 -16 51 14 126 29 206 37 206 4 0 35 -22 67 -49z m1252 -212 c328
-41 610 -132 718 -233 96 -90 131 -190 162 -461 30 -260 26 -548 -11 -860 -22
-185 -88 -401 -137 -450 -51 -52 -65 -54 -344 -65 -146 -6 -298 -17 -343 -25
-49 -10 -191 -19 -371 -25 -160 -5 -301 -11 -315 -14 -13 -3 -55 -8 -94 -11
-129 -10 -532 -85 -600 -111 -47 -19 -155 -97 -207 -151 -77 -80 -121 -205
-96 -278 19 -57 80 -100 171 -120 64 -14 103 -15 313 -6 131 6 293 17 359 26
205 27 829 146 1347 257 163 35 192 15 185 -124 -9 -184 -153 -353 -362 -426
-96 -33 -168 -49 -391 -87 -115 -20 -328 -56 -474 -82 -243 -41 -280 -45 -445
-46 -275 -2 -819 57 -938 103 -88 33 -177 98 -219 158 -58 85 -71 156 -71 417
0 121 3 239 7 261 l7 42 82 12 c110 17 146 51 98 94 -16 14 -34 16 -143 10
-144 -8 -202 2 -293 50 -116 60 -231 206 -306 385 -27 63 -33 95 -38 183 l-7
106 -76 74 c-86 84 -104 114 -113 184 -18 136 85 142 113 6 6 -26 15 -73 22
-105 13 -63 35 -85 64 -64 12 9 25 51 40 127 21 106 52 190 75 205 5 3 13 -15
16 -39 6 -35 1 -67 -20 -138 -36 -122 -40 -151 -22 -166 23 -19 58 0 136 74
40 37 74 65 76 62 8 -7 -69 -120 -101 -149 -16 -14 -48 -31 -71 -38 -52 -14
-58 -31 -50 -140 12 -178 140 -392 273 -457 54 -27 57 -27 207 -21 152 6 220
17 246 42 27 27 1 35 -110 35 l-109 0 0 59 c0 95 19 303 45 501 31 234 32 251
40 390 22 399 29 440 116 613 95 188 127 213 342 267 359 90 721 152 967 167
58 3 107 8 110 10 11 11 393 -9 540 -28z m1485 -840 c4 -39 8 -118 9 -175 2
-68 7 -108 16 -119 27 -33 53 -13 133 105 42 63 82 117 87 118 15 5 12 -49 -7
-104 -23 -69 -55 -107 -112 -134 -58 -27 -71 -52 -71 -139 0 -150 -28 -178
-375 -369 -97 -53 -182 -88 -192 -78 -2 2 -1 29 3 60 7 55 7 56 40 56 144 0
315 112 383 252 57 115 57 113 -51 225 -76 79 -97 107 -108 146 -24 88 8 76
89 -31 39 -51 61 -72 76 -72 42 0 48 21 43 147 -5 111 3 183 21 183 5 0 12
-32 16 -71z m-960 -1359 c10 -16 -23 -60 -45 -60 -19 0 -50 35 -50 57 0 16 86
18 95 3z m-561 -82 c-25 -71 -47 -83 -103 -53 -25 12 -51 57 -51 86 0 5 38 9
85 9 l84 0 -15 -42z m-504 5 c0 -25 -35 -80 -59 -92 -11 -6 -27 -8 -36 -5 -20
8 -45 56 -45 89 0 24 2 25 70 25 60 0 70 -2 70 -17z m-520 -51 c0 -5 -6 -30
-14 -56 -20 -66 -41 -86 -88 -86 -33 0 -41 5 -58 33 -11 17 -20 44 -20 58 0
24 5 27 78 41 96 19 102 20 102 10z m1352 -1113 c10 -78 8 -331 -3 -392 -30
-172 -23 -197 60 -197 72 0 118 -11 140 -32 44 -41 14 -66 -107 -88 -61 -11
-249 -16 -258 -7 -2 2 9 34 26 70 49 109 73 211 73 312 0 109 -21 191 -73 296
l-39 77 67 7 c37 4 72 8 77 10 22 8 30 -4 37 -56z m-1882 -51 c39 -9 50 -15
46 -27 -2 -9 -16 -47 -30 -84 -15 -38 -34 -110 -42 -160 -20 -110 -22 -319 -6
-402 15 -73 20 -68 -127 -126 -129 -51 -223 -63 -240 -31 -8 16 -6 25 9 45 27
35 75 54 150 62 36 4 76 14 89 22 28 18 27 43 -13 230 -31 145 -33 210 -7 291
23 76 87 192 106 192 7 0 37 -5 65 -12z"/>
<path d="M2728 3851 c-62 -55 -33 -141 47 -141 48 0 76 27 82 80 4 36 1 49
-17 68 -29 31 -72 29 -112 -7z"/>
<path d="M3256 3798 c-33 -47 -11 -108 38 -108 46 0 72 62 46 111 -15 27 -64
25 -84 -3z"/>
<path d="M2986 3609 c-14 -11 -38 -42 -53 -67 -15 -26 -61 -96 -102 -157 -110
-163 -125 -203 -100 -274 15 -42 60 -65 110 -57 41 7 41 6 53 -66 8 -47 55
-88 101 -88 63 0 112 64 130 168 6 39 9 43 29 37 59 -19 75 -17 100 10 17 18
27 43 32 81 12 99 -15 176 -100 289 -114 149 -144 168 -200 124z m66 -96 c36
-39 122 -162 136 -196 12 -27 17 -127 7 -127 -3 0 -21 18 -41 40 -67 74 -93
51 -106 -93 -10 -101 -28 -152 -51 -144 -8 2 -14 43 -17 121 -4 99 -8 120 -23
131 -26 19 -44 9 -73 -41 -15 -25 -35 -49 -45 -55 -17 -8 -19 -6 -19 21 0 34
34 106 118 250 80 139 75 134 114 93z"/>
<path d="M1577 3533 c-25 -24 18 -87 55 -81 31 4 35 35 7 64 -22 23 -49 31
-62 17z"/>
<path d="M1531 3281 c-24 -15 -5 -43 26 -39 16 2 28 7 28 12 0 16 -40 36 -54
27z"/>
<path d="M1510 3056 c0 -17 27 -29 35 -16 4 6 3 15 0 20 -9 15 -35 12 -35 -4z"/>
</g>
</svg>
