<?xml version="1.0" standalone="no"?>
<!DOCTYPE svg PUBLIC "-//W3C//DTD SVG 20010904//EN"
 "http://www.w3.org/TR/2001/REC-SVG-20010904/DTD/svg10.dtd">
<svg version="1.0" xmlns="http://www.w3.org/2000/svg"
 width="221.000000pt" height="216.000000pt" viewBox="0 0 221.000000 216.000000"
 preserveAspectRatio="xMidYMid meet">

<g transform="translate(0.000000,216.000000) scale(0.100000,-0.100000)"
fill="#000000" stroke="none">
<path d="M833 2095 c-111 -25 -334 -156 -442 -258 -204 -195 -330 -480 -330
-747 0 -152 45 -335 93 -375 13 -11 36 -45 51 -75 87 -174 271 -365 447 -463
129 -72 342 -127 492 -127 348 0 699 208 870 513 73 129 126 343 126 506 0
146 -46 342 -115 482 -74 152 -222 312 -372 402 -89 53 -243 110 -360 133
-101 19 -390 25 -460 9z m512 -104 c101 -27 261 -104 342 -165 78 -59 165
-153 220 -238 154 -238 191 -576 92 -846 -103 -282 -339 -499 -636 -584 -110
-32 -340 -32 -459 -1 -175 46 -330 140 -466 281 -127 132 -197 249 -243 409
-90 307 14 672 266 937 80 85 147 130 263 176 124 50 190 60 376 56 129 -3
183 -8 245 -25z"/>
</g>
</svg>
