<?xml version="1.0" standalone="no"?>
<!DOCTYPE svg PUBLIC "-//W3C//DTD SVG 20010904//EN"
 "http://www.w3.org/TR/2001/REC-SVG-20010904/DTD/svg10.dtd">
<svg version="1.0" xmlns="http://www.w3.org/2000/svg"
 width="111.000000pt" height="372.000000pt" viewBox="0 0 111.000000 372.000000"
 preserveAspectRatio="xMidYMid meet">

<g transform="translate(0.000000,372.000000) scale(0.100000,-0.100000)"
fill="#000000" stroke="none">
<path d="M425 3686 c-65 -20 -105 -45 -162 -99 -103 -97 -167 -243 -199 -457
-38 -245 -13 -868 47 -1220 34 -199 146 -630 180 -692 5 -10 9 -26 9 -36 0
-24 25 -47 71 -66 20 -8 42 -22 49 -31 47 -56 142 -66 286 -30 129 32 162 48
168 78 3 12 7 81 10 152 6 134 20 259 55 475 59 370 72 460 90 625 54 484 54
702 0 915 -42 165 -135 297 -251 356 -78 39 -271 56 -353 30z m210 -120 c59
-27 119 -90 147 -154 56 -127 78 -393 59 -707 -17 -265 -36 -441 -71 -645 -55
-320 -89 -554 -99 -679 -6 -68 -14 -128 -18 -132 -13 -13 -160 -29 -206 -23
-38 6 -45 11 -56 39 -6 18 -22 44 -36 59 -14 15 -33 59 -46 103 -12 43 -27 89
-34 103 -15 30 -59 285 -80 465 -35 309 -49 909 -26 1085 31 225 102 383 209
460 77 56 173 66 257 26z"/>
<path d="M562 889 c-45 -9 -146 -66 -219 -125 -25 -20 -53 -58 -70 -92 -24
-48 -28 -69 -28 -138 0 -73 4 -88 37 -155 26 -53 56 -92 102 -137 36 -34 66
-67 66 -72 0 -17 85 -68 140 -84 160 -48 352 16 427 143 47 79 58 144 44 270
-12 118 -41 194 -87 230 -107 83 -218 142 -303 160 -29 6 -55 11 -59 10 -4 -1
-26 -5 -50 -10z m133 -103 c63 -29 138 -109 173 -184 22 -47 27 -71 27 -139 0
-76 -2 -84 -31 -119 -41 -51 -108 -84 -181 -91 -165 -14 -333 143 -333 312 0
83 28 122 130 181 44 26 80 51 80 55 0 18 86 8 135 -15z"/>
</g>
</svg>
