<?xml version="1.0" standalone="no"?>
<!DOCTYPE svg PUBLIC "-//W3C//DTD SVG 20010904//EN"
 "http://www.w3.org/TR/2001/REC-SVG-20010904/DTD/svg10.dtd">
<svg version="1.0" xmlns="http://www.w3.org/2000/svg"
 width="70.000000pt" height="75.000000pt" viewBox="0 0 70.000000 75.000000"
 preserveAspectRatio="xMidYMid meet">

<g transform="translate(0.000000,75.000000) scale(0.100000,-0.100000)"
fill="#000000" stroke="none">
<path d="M207 653 c-15 -14 -5 -47 24 -85 l32 -40 -26 -26 c-15 -14 -28 -24
-30 -21 -46 64 -59 77 -72 73 -22 -9 -18 -45 10 -86 l24 -36 -29 -38 c-51 -64
-71 -103 -68 -131 5 -45 23 -37 76 37 29 38 55 70 59 70 5 0 25 -25 46 -55
l39 -55 -39 -48 c-84 -102 -96 -128 -69 -152 12 -9 18 -8 30 7 8 10 36 44 62
75 25 32 48 58 50 58 2 0 13 -18 24 -41 14 -27 27 -39 38 -37 24 5 27 35 6 79
-17 39 -17 40 6 64 13 14 29 25 35 25 6 0 40 -40 74 -90 42 -61 68 -90 82 -90
37 0 22 48 -42 137 l-60 85 52 47 c43 38 51 50 45 69 -10 30 -22 28 -83 -13
-29 -19 -56 -35 -60 -34 -11 0 -83 96 -83 109 0 15 72 57 119 70 34 9 41 15
41 36 0 54 -79 48 -164 -13 l-50 -36 -40 47 c-42 47 -48 51 -59 39z m179 -286
c5 -16 -28 -56 -48 -57 -3 0 -25 26 -47 57 l-41 58 28 22 27 22 37 -42 c21
-23 40 -50 44 -60z"/>
</g>
</svg>
