<?xml version="1.0" standalone="no"?>
<!DOCTYPE svg PUBLIC "-//W3C//DTD SVG 20010904//EN"
 "http://www.w3.org/TR/2001/REC-SVG-20010904/DTD/svg10.dtd">
<svg version="1.0" xmlns="http://www.w3.org/2000/svg"
 width="94.000000pt" height="115.000000pt" viewBox="0 0 94.000000 115.000000"
 preserveAspectRatio="xMidYMid meet">

<g transform="translate(0.000000,115.000000) scale(0.100000,-0.100000)"
fill="#000000" stroke="none">
<path d="M275 1095 c-86 -35 -134 -74 -182 -143 -113 -166 -69 -399 113 -601
48 -53 183 -161 202 -161 5 0 58 34 118 77 112 78 224 143 250 143 27 0 14
-29 -35 -72 -26 -23 -96 -68 -154 -98 -106 -55 -124 -71 -111 -104 9 -23 34
-16 159 44 113 54 145 66 145 51 0 -5 -59 -39 -130 -76 -123 -62 -130 -67
-130 -95 0 -17 5 -30 10 -30 21 0 270 129 310 160 35 27 41 37 38 64 -2 25 -9
33 -35 41 -34 9 -41 23 -23 41 12 12 16 70 6 100 -3 12 -17 26 -30 32 -27 12
-30 27 -46 217 -12 135 -21 175 -57 251 -33 70 -91 130 -156 160 -73 33 -179
33 -262 -1z m253 -71 c106 -53 158 -149 173 -324 6 -58 13 -133 17 -168 8 -58
7 -63 -15 -77 -34 -23 -39 -19 -52 43 -28 125 -73 192 -131 192 -43 0 -80 -50
-80 -106 0 -24 -1 -44 -3 -44 -1 0 -20 9 -42 20 -50 25 -70 25 -96 -1 -48 -48
-2 -166 91 -237 54 -41 60 -52 28 -52 -30 0 -140 87 -207 165 -91 106 -150
257 -137 349 29 192 282 326 454 240z m25 -416 c19 -14 51 -101 62 -164 6 -40
6 -41 -48 -76 l-54 -36 -44 21 c-68 34 -97 56 -119 92 -45 73 -14 81 71 19 72
-52 83 -44 67 47 -15 89 15 134 65 97z"/>
</g>
</svg>
