<?xml version="1.0" standalone="no"?>
<!DOCTYPE svg PUBLIC "-//W3C//DTD SVG 20010904//EN"
 "http://www.w3.org/TR/2001/REC-SVG-20010904/DTD/svg10.dtd">
<svg version="1.0" xmlns="http://www.w3.org/2000/svg"
 width="419.000000pt" height="595.000000pt" viewBox="0 0 419.000000 595.000000"
 preserveAspectRatio="xMidYMid meet">

<g transform="translate(0.000000,595.000000) scale(0.100000,-0.100000)"
fill="#000000" stroke="none">
<path d="M1610 5778 c-311 -45 -540 -124 -689 -238 -36 -28 -127 -108 -202
-180 -141 -134 -174 -178 -271 -360 -101 -190 -128 -321 -79 -374 20 -21 34
-26 74 -26 58 0 60 14 -16 -161 -61 -139 -89 -228 -107 -333 -22 -137 13 -196
120 -204 50 -4 60 -7 56 -21 -3 -9 -19 -70 -36 -136 -21 -80 -51 -162 -92
-245 -118 -243 -152 -388 -152 -650 0 -142 3 -174 21 -229 l22 -64 -23 -31
c-35 -48 -56 -111 -56 -171 0 -69 14 -98 56 -121 31 -17 35 -17 69 -1 21 10
47 36 66 64 16 27 33 46 37 44 4 -3 21 -25 39 -49 35 -50 78 -82 110 -82 35 0
79 45 104 107 13 32 36 68 51 81 37 32 49 77 31 122 -20 49 -36 64 -106 98
-34 16 -68 36 -75 44 -19 24 -52 186 -51 258 0 36 10 107 22 159 l22 94 62 18
c35 9 64 14 66 11 2 -4 0 -43 -4 -87 -29 -307 12 -509 127 -615 75 -69 150
-61 216 22 l32 40 52 -110 c86 -183 131 -234 223 -258 l46 -11 7 -54 c4 -30
10 -184 12 -344 3 -159 12 -472 22 -695 9 -223 17 -425 18 -450 l1 -45 -46 -6
c-63 -9 -100 -30 -148 -85 -90 -102 -77 -208 32 -267 34 -18 58 -22 132 -22
81 0 100 4 187 38 121 48 158 72 182 120 17 35 17 48 7 145 -6 59 -15 249 -21
422 -5 173 -12 333 -15 355 -7 63 -32 704 -28 709 2 1 26 -2 54 -8 43 -9 64
-7 139 12 l89 23 51 -35 c87 -60 189 -68 319 -25 31 10 56 17 57 16 11 -12 44
-785 45 -1021 0 -239 14 -456 33 -500 20 -49 50 -59 166 -54 119 6 189 33 269
105 68 61 91 103 91 168 0 87 -58 144 -162 160 -46 7 -46 7 -52 53 -3 26 -8
90 -11 142 -3 52 -8 111 -10 132 -3 20 -12 139 -20 265 -8 125 -21 329 -29
453 -8 124 -18 307 -21 407 -7 204 -9 197 62 168 85 -36 208 -7 281 66 44 43
56 69 78 164 26 110 27 396 2 470 -27 81 -27 99 2 103 66 9 106 26 151 69 27
25 51 44 52 42 2 -2 33 -42 69 -89 80 -104 101 -144 133 -255 32 -111 31 -126
-6 -205 -91 -192 -74 -357 41 -391 52 -16 104 8 127 58 10 21 18 39 19 41 1 2
17 -6 35 -17 44 -27 65 -26 94 4 21 20 25 33 25 88 0 35 3 66 6 69 3 3 29 0
58 -8 58 -15 105 -7 137 22 23 21 25 83 5 123 -31 58 -137 138 -208 155 -39 9
-55 39 -78 144 -27 127 -51 182 -176 402 -116 204 -164 263 -330 407 -66 57
-76 72 -132 186 -33 69 -79 158 -103 198 -66 110 -66 104 5 105 74 0 123 23
133 62 33 128 -57 337 -248 577 -139 175 -260 313 -316 362 -192 167 -451 306
-650 349 -85 18 -293 25 -383 12z m270 -138 c110 -14 190 -40 323 -106 257
-127 425 -280 676 -615 74 -97 181 -298 181 -338 0 -21 -3 -23 -37 -17 -21 3
-68 9 -104 12 -64 6 -66 6 -88 -22 -33 -42 -24 -73 62 -221 130 -223 195 -366
277 -610 48 -141 58 -224 33 -273 -20 -38 -40 -42 -128 -26 -33 7 -45 4 -69
-15 -28 -22 -28 -23 -21 -93 4 -39 18 -120 32 -181 21 -93 24 -126 20 -215 -6
-114 -36 -250 -65 -290 -10 -14 -36 -34 -57 -44 -38 -19 -39 -19 -129 3 -148
36 -166 23 -189 -130 -28 -190 -119 -309 -274 -360 -119 -40 -183 -20 -276 85
-46 52 -64 66 -86 66 -35 0 -48 -15 -53 -60 -3 -29 -8 -36 -40 -48 -48 -19
-75 -11 -130 37 -64 57 -108 151 -115 247 -7 87 -28 124 -72 124 -36 0 -48
-11 -114 -105 -75 -106 -82 -115 -94 -115 -11 0 -70 85 -102 148 -32 63 -51
157 -51 260 0 79 -3 95 -20 112 -26 26 -62 25 -87 -2 -11 -13 -51 -72 -89
-132 -38 -60 -72 -114 -76 -120 -11 -17 -49 24 -75 82 -41 94 -48 176 -35 432
8 146 8 238 2 254 -20 55 -71 53 -137 -4 -52 -46 -90 -63 -113 -50 -30 16 -35
54 -22 180 18 175 58 327 137 517 21 53 24 67 14 85 -28 53 -52 50 -151 -17
-44 -30 -85 -55 -91 -55 -20 0 1 143 36 245 39 114 99 234 192 385 69 111 75
132 48 162 -24 27 -43 23 -146 -32 -52 -27 -96 -50 -100 -50 -9 0 13 71 45
140 54 116 136 227 266 359 146 148 231 208 436 307 142 68 221 90 374 103
130 12 189 12 282 1z m1631 -2122 c124 -214 157 -285 180 -383 35 -152 39
-164 70 -200 20 -22 48 -40 79 -49 70 -21 102 -40 143 -85 20 -23 37 -43 37
-46 0 -3 -13 -5 -28 -5 -17 0 -66 23 -120 55 -50 30 -98 55 -106 55 -8 0 -23
-11 -34 -25 -11 -14 -28 -25 -38 -25 -48 -1 -63 -45 -64 -181 0 -47 -3 -89 -7
-92 -11 -11 -43 24 -43 47 1 48 30 156 60 220 30 62 32 75 28 140 -11 153 -94
326 -240 498 l-49 56 16 74 c8 40 15 76 15 81 0 27 28 -11 101 -135z m-3072
-372 c9 -10 9 -30 1 -77 -12 -75 -12 -195 -1 -259 35 -199 49 -225 138 -259
65 -25 93 -46 93 -72 0 -23 -31 -15 -61 17 -27 29 -40 30 -63 5 -16 -18 -16
-22 8 -70 30 -57 33 -93 11 -111 -13 -10 -19 -9 -36 6 -23 20 -49 76 -49 104
0 26 -38 70 -61 70 -19 0 -48 -36 -104 -126 -26 -44 -30 -47 -33 -25 -7 43 8
90 43 132 48 57 52 81 24 148 -15 36 -25 82 -27 130 -6 108 18 347 44 429 3
10 11 9 32 -7 16 -11 34 -27 41 -35z m3347 -447 c8 -17 14 -40 12 -52 -3 -20
-5 -20 -19 8 -22 40 -33 89 -19 80 5 -3 17 -20 26 -36z m-2207 -849 l28 0 7
-182 c3 -101 11 -255 16 -343 6 -88 15 -295 21 -460 5 -165 12 -329 15 -366 7
-77 7 -76 -97 -120 -85 -36 -217 -52 -244 -29 -24 20 -17 50 20 87 l36 36 73
-7 c72 -7 75 -6 96 21 20 26 22 35 16 108 -4 44 -14 235 -22 425 -9 190 -19
386 -24 435 -10 112 -12 389 -3 399 4 3 13 4 21 1 7 -3 26 -5 41 -5z m1050
-46 c4 -3 26 -272 72 -868 5 -77 14 -148 20 -157 13 -26 35 -35 99 -43 60 -8
100 -28 100 -51 0 -27 -79 -102 -131 -124 -28 -13 -75 -23 -107 -24 l-56 -2
-7 35 c-5 19 -13 186 -19 370 -11 380 -33 661 -65 853 l-5 28 48 -7 c26 -3 49
-8 51 -10z"/>
<path d="M2215 5109 c-89 -10 -139 -24 -188 -52 -118 -69 -206 -242 -195 -382
23 -285 381 -415 562 -204 118 139 158 343 93 484 -58 124 -136 169 -272 154z
m13 -241 c16 -16 15 -72 -2 -111 -23 -50 -62 -91 -80 -84 -35 14 -12 133 36
184 25 26 30 27 46 11z"/>
<path d="M1384 5009 c-39 -4 -84 -14 -101 -23 -91 -47 -193 -251 -193 -387 0
-97 62 -203 143 -243 105 -53 195 -28 308 84 148 148 191 368 96 492 -55 71
-118 90 -253 77z m54 -211 c7 -7 12 -27 12 -45 0 -27 -6 -36 -43 -58 -24 -14
-47 -25 -50 -25 -11 0 -8 60 4 83 27 53 54 68 77 45z"/>
<path d="M1860 4282 c-8 -2 -27 -15 -41 -29 -38 -35 -88 -40 -137 -13 -46 26
-72 21 -72 -12 0 -54 63 -98 137 -98 77 1 163 62 163 116 0 25 -26 44 -50 36z"/>
<path d="M2684 3475 c-10 -24 2 -41 51 -75 53 -37 79 -30 66 18 -13 49 -104
93 -117 57z"/>
<path d="M2645 3229 c-5 -16 1 -29 23 -51 34 -34 52 -30 52 12 0 52 -61 84
-75 39z"/>
</g>
</svg>
