<?xml version="1.0" standalone="no"?>
<!DOCTYPE svg PUBLIC "-//W3C//DTD SVG 20010904//EN"
 "http://www.w3.org/TR/2001/REC-SVG-20010904/DTD/svg10.dtd">
<svg version="1.0" xmlns="http://www.w3.org/2000/svg"
 width="1600.000000pt" height="1600.000000pt" viewBox="0 0 1600.000000 1600.000000"
 preserveAspectRatio="xMidYMid meet">

<g transform="translate(0.000000,1600.000000) scale(0.100000,-0.100000)"
fill="#000000" stroke="none">
<path d="M2272 13958 c-210 -559 -365 -1189 -442 -1793 -68 -541 -78 -1147
-24 -1488 l15 -97 -78 -88 c-511 -567 -860 -1249 -1007 -1967 -83 -404 -110
-775 -95 -1295 33 -1133 247 -2059 660 -2859 570 -1102 1499 -1871 2777 -2297
496 -166 1031 -271 1677 -330 412 -37 3941 -37 4360 0 311 28 529 56 780 102
875 159 1648 468 2275 908 298 209 682 569 902 846 726 912 1097 2051 1159
3555 39 944 -93 1663 -431 2350 -181 369 -367 639 -716 1044 l-31 36 13 83
c38 240 42 750 9 1145 -62 747 -231 1510 -479 2157 l-44 115 -53 -2 c-70 -2
-331 -61 -522 -117 -886 -262 -1847 -730 -2820 -1374 l-219 -144 -171 36
c-486 102 -1041 146 -1827 146 -803 0 -1410 -50 -1891 -157 l-116 -25 -179
120 c-560 375 -1271 771 -1804 1007 -516 227 -1061 411 -1451 490 -189 38
-168 47 -227 -107z m676 -674 c563 -189 1120 -445 1742 -802 287 -165 618
-376 1037 -662 l92 -63 193 51 c106 28 254 62 328 76 823 150 2307 152 3155 6
94 -16 255 -52 359 -80 104 -27 193 -50 198 -50 4 0 100 63 212 140 939 645
1826 1105 2664 1384 112 38 206 66 208 63 9 -9 84 -277 124 -442 135 -564 200
-1094 200 -1645 0 -328 -9 -435 -56 -682 l-36 -187 167 -185 c334 -369 508
-612 675 -941 193 -379 311 -779 365 -1240 23 -188 31 -703 16 -977 -63 -1154
-327 -2048 -823 -2790 -55 -82 -100 -148 -102 -148 -2 0 20 73 49 163 89 271
146 560 181 907 21 210 24 697 6 855 -75 633 -283 1137 -670 1625 -96 122
-393 418 -497 497 -461 347 -948 513 -1680 574 -169 13 -701 13 -975 -1 -118
-6 -442 -26 -720 -45 -843 -58 -893 -60 -1425 -60 -533 0 -580 2 -1425 60
-717 49 -874 56 -1235 56 -395 0 -601 -14 -888 -62 -580 -97 -1056 -323 -1438
-686 -532 -506 -856 -1123 -960 -1828 -28 -195 -38 -436 -28 -699 18 -465 77
-814 205 -1206 59 -184 61 -184 -70 10 -433 647 -698 1465 -790 2445 -38 401
-45 968 -16 1240 53 493 156 864 350 1260 176 359 344 600 661 949 79 87 157
175 173 194 l30 35 -37 196 c-53 282 -60 392 -54 786 4 270 11 387 31 566 53
477 137 889 283 1392 3 9 9 17 15 17 5 0 98 -30 206 -66z m3017 -5198 c127 -9
392 -27 590 -41 644 -45 901 -55 1380 -55 479 0 737 10 1380 55 794 56 848 58
1255 59 403 1 489 -4 740 -40 322 -46 626 -147 846 -279 420 -254 802 -731
977 -1220 107 -299 147 -543 147 -900 0 -1532 -647 -2476 -2010 -2937 -547
-185 -1198 -294 -2070 -348 -657 -40 -1801 -40 -2480 0 -1493 89 -2472 367
-3130 891 -606 482 -926 1160 -990 2097 -51 755 96 1307 488 1832 111 149 375
413 500 500 336 236 735 358 1301 400 163 12 802 4 1076 -14z"/>
<path d="M5319 6860 c-294 -36 -580 -267 -749 -605 -327 -655 -216 -1527 252
-1986 465 -456 1124 -289 1444 366 310 635 204 1497 -240 1950 -202 206 -458
306 -707 275z m159 -647 c70 -32 156 -132 211 -245 132 -268 156 -582 71 -888
-58 -205 -190 -389 -309 -429 -96 -32 -225 74 -316 257 -78 158 -115 330 -115
532 0 278 82 532 221 684 91 99 160 125 237 89z"/>
<path d="M10368 6860 c-187 -22 -366 -118 -524 -281 -147 -153 -246 -321 -322
-549 -70 -213 -87 -326 -86 -600 0 -218 2 -244 27 -365 35 -163 74 -281 138
-414 316 -664 958 -840 1439 -394 136 126 290 376 355 578 200 616 75 1324
-303 1726 -126 134 -245 214 -393 264 -61 21 -218 48 -254 44 -5 -1 -40 -5
-77 -9z m161 -649 c118 -61 235 -248 291 -464 87 -341 7 -782 -180 -990 -129
-143 -228 -145 -355 -5 -111 123 -192 333 -216 563 -32 309 64 653 230 824 85
87 156 109 230 72z"/>
</g>
</svg>
