<?xml version="1.0" standalone="no"?>
<!DOCTYPE svg PUBLIC "-//W3C//DTD SVG 20010904//EN"
 "http://www.w3.org/TR/2001/REC-SVG-20010904/DTD/svg10.dtd">
<svg version="1.0" xmlns="http://www.w3.org/2000/svg"
 width="355.000000pt" height="259.000000pt" viewBox="0 0 355.000000 259.000000"
 preserveAspectRatio="xMidYMid meet">

<g transform="translate(0.000000,259.000000) scale(0.100000,-0.100000)"
fill="#000000" stroke="none">
<path d="M660 2500 c-168 -26 -292 -152 -321 -327 -22 -131 32 -260 142 -335
80 -55 131 -71 229 -72 75 0 93 4 152 31 92 43 151 100 195 189 33 67 36 82
36 156 0 241 -189 396 -433 358z m145 -132 c93 -23 149 -100 149 -208 0 -147
-101 -257 -245 -268 -77 -6 -121 11 -167 63 -46 52 -62 100 -62 186 0 109 55
195 145 227 37 13 126 13 180 0z"/>
<path d="M1442 2061 c-165 -7 -167 -8 -176 -138 -27 -370 -44 -1161 -31 -1426
7 -151 8 -159 31 -174 20 -12 64 -15 258 -17 308 -1 294 -13 256 219 -90 543
-59 785 115 878 34 19 56 22 145 22 165 0 246 -39 304 -145 58 -107 67 -253
36 -571 -12 -112 -21 -247 -21 -299 -1 -126 -5 -123 197 -138 88 -7 187 -15
221 -18 104 -9 99 -28 106 381 7 369 1 482 -34 618 -77 304 -307 537 -611 619
-68 18 -109 22 -233 23 -82 0 -173 -3 -201 -8 l-52 -7 -11 77 c-8 58 -17 83
-32 96 -23 18 -17 18 -267 8z m172 -152 c3 -17 6 -49 6 -71 0 -52 32 -98 68
-98 15 0 63 7 107 15 117 23 291 21 390 -5 210 -53 390 -199 493 -398 85 -164
99 -280 77 -624 -9 -134 -15 -265 -14 -293 3 -44 1 -50 -17 -48 -10 1 -67 5
-126 8 -105 7 -106 7 -111 33 -3 15 1 144 9 287 15 265 13 379 -11 496 -44
218 -208 342 -450 341 -213 -2 -341 -108 -402 -332 -24 -88 -24 -414 0 -580 9
-63 19 -137 23 -164 l7 -48 -141 4 c-77 2 -144 7 -148 11 -18 18 0 1215 22
1429 l6 57 66 4 c37 2 83 4 103 5 33 2 37 -1 43 -29z"/>
<path d="M504 1619 c-32 -35 -26 -202 44 -1198 9 -140 3 -135 237 -153 99 -8
196 -11 215 -7 59 13 62 26 56 194 -3 83 -13 341 -21 575 -9 234 -18 458 -21
498 -9 116 -1 112 -267 112 -215 0 -225 -1 -243 -21z m380 -171 c5 -62 20
-435 32 -845 l7 -213 -39 0 c-21 0 -76 3 -121 6 l-81 7 -7 106 c-3 58 -17 270
-30 471 -13 201 -26 402 -28 448 l-5 82 133 0 133 0 6 -62z"/>
</g>
</svg>
