<?xml version="1.0" standalone="no"?>
<!DOCTYPE svg PUBLIC "-//W3C//DTD SVG 20010904//EN"
 "http://www.w3.org/TR/2001/REC-SVG-20010904/DTD/svg10.dtd">
<svg version="1.0" xmlns="http://www.w3.org/2000/svg"
 width="243.000000pt" height="175.000000pt" viewBox="0 0 243.000000 175.000000"
 preserveAspectRatio="xMidYMid meet">

<g transform="translate(0.000000,175.000000) scale(0.100000,-0.100000)"
fill="#000000" stroke="none">
<path d="M520 1469 c-124 -5 -235 -14 -248 -19 -21 -9 -23 -15 -18 -53 18
-128 38 -544 42 -832 l4 -330 162 5 c349 11 1510 5 1622 -8 66 -8 112 -10 118
-4 18 18 28 1216 11 1233 -14 14 -1394 21 -1693 8z m1437 -66 l83 -6 -133 -76
c-234 -135 -319 -196 -521 -369 -71 -61 -132 -110 -135 -108 -98 51 -864 543
-851 547 50 14 1393 25 1557 12z m195 -520 c-1 -269 -4 -498 -5 -511 -2 -18
-34 17 -148 160 -152 190 -389 505 -389 517 2 23 496 320 535 321 7 0 10 -158
7 -487z m-1620 335 c103 -67 228 -149 279 -181 l92 -59 -75 -76 c-79 -81 -199
-219 -362 -415 -54 -64 -99 -117 -101 -117 -2 0 -4 111 -4 248 0 136 -7 341
-16 457 -17 240 -18 278 -7 271 4 -2 91 -60 194 -128z m1065 -270 c72 -101
257 -344 375 -492 65 -82 118 -150 116 -151 -2 -2 -131 1 -288 6 -331 9 -1004
10 -1233 1 -86 -4 -157 -5 -157 -2 0 19 532 630 549 630 2 0 71 -41 153 -91
l149 -91 22 19 c82 74 261 223 268 223 5 0 26 -24 46 -52z"/>
<path d="M1169 1361 c-110 -43 -171 -121 -170 -220 0 -169 137 -243 324 -177
86 31 117 51 117 77 0 33 -26 33 -104 0 -58 -24 -89 -31 -141 -31 -60 0 -69 3
-95 28 -35 35 -45 85 -30 140 17 66 93 124 177 138 33 5 44 2 69 -19 34 -29
58 -93 48 -132 -13 -52 -34 -16 -34 61 0 48 -14 64 -54 64 -57 0 -110 -22
-148 -60 -34 -34 -38 -43 -38 -89 0 -41 5 -56 28 -81 39 -44 86 -49 152 -16
29 15 61 24 71 21 11 -4 29 5 50 23 28 25 33 37 37 89 3 50 0 68 -22 112 -16
30 -40 60 -59 71 -41 25 -116 25 -178 1z m98 -191 l10 -49 -34 -16 c-64 -31
-107 2 -81 60 11 25 55 54 84 55 6 0 16 -22 21 -50z"/>
</g>
</svg>
