<svg version="1.0" xmlns="http://www.w3.org/2000/svg"
 width="343.000000pt" height="611.000000pt" viewBox="0 0 343.000000 611.000000"
 preserveAspectRatio="xMidYMid meet">

<g transform="translate(0.000000,611.000000) scale(0.100000,-0.100000)"
fill="#000000" stroke="none">
<path d="M1765 6053 c-71 -9 -217 -47 -305 -80 -338 -126 -652 -378 -859 -691
-70 -104 -156 -274 -234 -462 -93 -225 -102 -258 -152 -550 -25 -146 -77 -454
-117 -685 -69 -402 -72 -427 -72 -580 0 -120 4 -176 17 -225 62 -235 234 -400
434 -418 l78 -7 -3 -240 c-2 -132 2 -307 8 -390 26 -368 26 -362 -20 -545 -37
-144 -43 -183 -47 -310 -13 -359 96 -569 262 -505 81 30 180 171 216 305 8 31
13 190 15 505 2 253 8 541 14 640 5 99 15 281 21 405 6 124 13 251 17 283 l7
58 107 -110 c59 -60 116 -128 128 -151 60 -118 86 -363 56 -525 -10 -49 -54
-229 -99 -400 l-82 -310 1 -140 c0 -137 1 -143 41 -265 48 -147 57 -189 82
-375 21 -162 37 -207 83 -235 95 -58 196 6 273 173 19 42 39 107 46 148 13 82
7 247 -12 344 -18 90 -16 343 4 450 9 50 36 146 59 215 l43 125 -4 351 c-3
316 -1 352 14 367 9 10 21 17 27 17 6 0 38 14 71 31 54 27 94 56 205 145 18
15 34 25 37 22 10 -9 47 -409 47 -504 0 -125 -11 -181 -68 -354 -53 -164 -74
-280 -74 -414 0 -148 37 -334 86 -429 24 -45 86 -109 121 -124 46 -19 103 -16
139 6 92 56 211 369 234 616 11 120 2 256 -25 383 -26 123 -20 223 21 380 31
117 36 153 37 252 0 66 -6 151 -16 200 -8 47 -14 86 -13 88 2 1 44 -3 94 -9
l90 -12 -1 -181 c-1 -201 6 -245 68 -426 51 -146 58 -267 24 -407 -20 -82 -23
-125 -24 -263 0 -156 1 -167 23 -203 49 -78 170 -114 249 -74 157 82 249 440
177 692 -56 199 -59 217 -45 330 19 156 16 295 -8 400 -12 50 -30 149 -41 220
-11 72 -23 141 -26 156 -4 18 6 48 36 105 89 168 129 312 149 540 10 112 1
337 -18 439 -24 134 -55 312 -91 533 -51 305 -131 665 -174 786 -83 230 -245
473 -423 637 -189 172 -440 261 -736 258 -78 -1 -155 -4 -172 -6z m439 -167
c117 -30 240 -88 318 -150 121 -96 300 -330 372 -488 20 -41 46 -110 60 -152
39 -118 122 -515 161 -771 45 -293 61 -382 82 -475 13 -58 16 -123 16 -280 0
-299 -36 -468 -133 -631 -51 -86 -151 -188 -215 -219 -105 -51 -180 -36 -305
59 -192 147 -228 146 -360 -6 -36 -41 -125 -131 -198 -200 -174 -163 -222
-188 -367 -188 -95 0 -104 2 -178 37 -66 32 -98 57 -215 171 -75 74 -152 142
-171 151 -45 24 -110 22 -157 -3 -22 -12 -82 -53 -134 -91 -138 -102 -189
-125 -275 -125 -58 0 -78 5 -115 27 -62 36 -131 112 -162 178 -71 152 -70 274
5 740 31 190 72 455 92 589 73 495 192 841 390 1136 237 354 592 610 960 694
124 28 141 30 295 26 104 -3 158 -10 234 -29z m907 -3468 c25 -108 26 -131 18
-493 -3 -149 -3 -151 30 -240 44 -118 55 -221 36 -331 -19 -107 -49 -187 -87
-230 -36 -41 -62 -43 -84 -8 -15 21 -16 42 -10 142 3 64 13 149 21 187 36 167
29 312 -22 460 -59 172 -72 215 -86 285 -8 41 -18 105 -22 142 l-6 66 83 60
c46 33 88 61 94 61 6 1 22 -45 35 -101z m-620 7 c7 -33 13 -109 13 -170 -1
-95 -6 -132 -42 -274 -23 -91 -42 -183 -42 -205 0 -23 11 -113 25 -201 47
-307 27 -474 -90 -730 -42 -93 -57 -105 -83 -68 -49 70 -92 256 -92 400 0 132
15 219 68 385 47 147 67 288 58 403 -3 46 -22 168 -42 270 -20 103 -34 187
-32 188 78 46 229 91 239 73 4 -6 13 -38 20 -71z m-1627 -400 c-8 -148 -16
-499 -18 -780 -3 -544 -3 -541 -55 -642 -23 -47 -69 -103 -82 -103 -6 0 -17
17 -25 37 -57 135 -58 398 -3 598 30 110 32 132 32 260 -1 77 -13 284 -27 461
-14 176 -26 328 -26 338 0 12 30 32 103 66 56 26 105 45 109 41 4 -3 0 -127
-8 -276z m698 71 l56 -16 8 -107 c4 -60 8 -187 8 -283 1 -174 1 -176 -32 -265
-70 -192 -101 -413 -82 -593 37 -354 37 -456 0 -539 -21 -49 -69 -117 -76
-110 -2 2 -11 62 -19 133 -18 153 -44 266 -88 389 -30 84 -32 99 -32 220 0
130 0 130 83 455 95 372 111 481 95 630 -11 97 -10 115 11 107 6 -2 36 -12 68
-21z"/>
<path d="M2110 5245 c-131 -59 -177 -229 -89 -329 123 -140 359 -34 359 161 0
110 -59 172 -172 179 -44 3 -74 0 -98 -11z"/>
<path d="M1319 5227 c-122 -46 -202 -148 -215 -275 -10 -88 18 -142 92 -178
141 -69 321 -6 387 136 30 64 30 170 -1 227 -33 62 -90 96 -166 100 -34 2 -77
-3 -97 -10z"/>
<path d="M1834 4658 c-53 -39 -64 -43 -114 -42 -30 1 -76 4 -101 9 -44 7 -48
5 -64 -19 -43 -66 38 -126 171 -126 109 0 182 34 225 104 24 40 24 71 -1 96
-29 29 -50 25 -116 -22z"/>
<path d="M2782 4346 c1 -10 8 -17 13 -17 15 1 12 24 -3 29 -9 3 -13 -2 -10
-12z"/>
<path d="M2833 3966 c-23 -20 -26 -28 -17 -43 7 -11 25 -19 46 -21 29 -2 40 2
57 24 44 56 -28 90 -86 40z"/>
<path d="M2865 3589 c-36 -32 -44 -56 -23 -77 22 -22 65 -14 92 19 32 37 33
53 4 73 -30 21 -32 21 -73 -15z"/>
</g>
</svg>
