<?xml version="1.0" standalone="no"?>
<!DOCTYPE svg PUBLIC "-//W3C//DTD SVG 20010904//EN"
 "http://www.w3.org/TR/2001/REC-SVG-20010904/DTD/svg10.dtd">
<svg version="1.0" xmlns="http://www.w3.org/2000/svg"
 width="279.000000pt" height="348.000000pt" viewBox="0 0 279.000000 348.000000"
 preserveAspectRatio="xMidYMid meet">

<g transform="translate(0.000000,348.000000) scale(0.100000,-0.100000)"
fill="#000000" stroke="none">
<path d="M934 3331 c-23 -10 -44 -25 -47 -33 -3 -9 -9 -134 -12 -279 -7 -261
-7 -264 14 -283 23 -21 103 -33 146 -22 37 9 105 75 126 121 36 79 13 159 -56
195 -17 8 -32 16 -34 17 -2 2 3 11 12 21 45 49 61 156 32 212 -35 68 -101 87
-181 51z m131 -66 c57 -57 10 -172 -84 -204 -59 -20 -61 -18 -61 62 0 113 8
145 39 156 46 17 81 12 106 -14z m26 -291 c56 -29 61 -86 12 -145 -33 -39 -73
-59 -118 -59 -62 0 -75 13 -75 74 0 99 10 144 34 150 34 7 117 -4 147 -20z"/>
<path d="M1395 3314 c-47 -24 -68 -48 -105 -120 -28 -55 -34 -80 -38 -148 -4
-69 -1 -89 16 -122 54 -105 163 -144 257 -91 143 80 136 422 -11 483 -43 18
-82 18 -119 -2z m115 -59 c38 -19 59 -61 71 -137 15 -90 -3 -162 -51 -210 -33
-34 -43 -38 -86 -38 -94 0 -154 62 -154 161 0 44 7 71 35 127 52 103 113 134
185 97z"/>
<path d="M2302 3308 c-5 -7 -19 -98 -31 -202 -12 -103 -25 -201 -28 -217 -4
-21 -1 -30 12 -35 30 -12 31 -10 74 308 16 119 14 158 -8 158 -5 0 -13 -6 -19
-12z"/>
<path d="M1845 3280 c-36 -14 -92 -85 -115 -146 -31 -81 -38 -200 -16 -259 33
-85 102 -123 207 -113 57 6 89 30 122 93 30 56 31 206 2 283 -41 112 -126 173
-200 142z m102 -76 c31 -20 59 -77 73 -150 16 -82 0 -166 -40 -206 -25 -24
-36 -28 -88 -28 -131 0 -179 89 -133 252 19 72 59 134 95 148 25 11 62 4 93
-16z"/>
<path d="M2232 2778 c-23 -23 -9 -88 20 -88 4 0 15 11 23 24 28 42 -9 98 -43
64z"/>
<path d="M1217 2500 c-343 -61 -623 -313 -762 -682 -10 -27 -21 -48 -24 -48
-4 0 -28 14 -54 30 -140 89 -247 79 -247 -23 0 -84 89 -249 176 -326 l45 -39
-12 -119 c-15 -150 -6 -541 15 -681 37 -243 101 -431 166 -486 31 -25 40 -28
86 -23 74 8 130 36 203 101 35 31 70 56 78 56 7 0 44 -23 81 -52 94 -72 175
-108 259 -115 100 -8 149 16 253 124 94 97 84 95 211 37 113 -50 157 -64 206
-64 59 0 77 10 149 86 82 87 101 87 219 -1 56 -42 106 -71 141 -81 99 -28 180
3 217 84 20 43 22 63 22 237 0 207 -11 298 -70 585 -40 196 -92 396 -141 537
l-35 103 41 51 c88 112 147 255 134 326 -18 97 -129 94 -287 -7 l-62 -40 -15
23 c-41 60 -140 165 -208 218 -91 73 -201 130 -319 165 -77 23 -109 27 -253
30 -91 1 -187 -1 -213 -6z m308 -50 c225 -33 373 -105 525 -259 189 -190 316
-460 425 -905 115 -468 152 -869 91 -988 -18 -37 -27 -44 -63 -52 -63 -13
-119 7 -199 71 -38 30 -81 61 -96 69 -63 32 -131 7 -210 -78 l-57 -61 -59 5
c-41 4 -95 22 -176 58 -148 65 -153 64 -255 -42 -92 -97 -130 -118 -208 -118
-73 0 -156 37 -256 115 -39 30 -78 55 -88 55 -34 0 -71 -20 -122 -69 -83 -77
-175 -113 -217 -84 -40 28 -96 168 -124 310 -65 326 -70 677 -16 992 78 452
298 785 605 914 154 64 341 89 500 67z m993 -356 c4 -44 -31 -131 -89 -220
l-51 -77 -59 113 c-32 62 -58 114 -56 115 79 54 104 69 140 86 23 10 58 18 77
17 31 -3 35 -6 38 -34z m-2210 -324 c44 -22 85 -47 92 -55 10 -12 8 -33 -10
-107 -34 -145 -28 -133 -57 -106 -32 30 -106 142 -127 192 -9 21 -16 56 -16
77 0 51 14 51 118 -1z"/>
<path d="M1747 2022 c-23 -26 -21 -84 4 -116 22 -28 60 -35 76 -13 55 69 -23
193 -80 129z"/>
<path d="M831 1904 c-47 -60 -1 -166 58 -135 45 25 46 127 1 151 -28 15 -37
13 -59 -16z"/>
</g>
</svg>
