<?xml version="1.0" standalone="no"?>
<!DOCTYPE svg PUBLIC "-//W3C//DTD SVG 20010904//EN"
 "http://www.w3.org/TR/2001/REC-SVG-20010904/DTD/svg10.dtd">
<svg version="1.0" xmlns="http://www.w3.org/2000/svg"
 width="401.000000pt" height="622.000000pt" viewBox="0 0 401.000000 622.000000"
 preserveAspectRatio="xMidYMid meet">

<g transform="translate(0.000000,622.000000) scale(0.100000,-0.100000)"
fill="#000000" stroke="none">
<path d="M2015 6210 c-173 -10 -303 -40 -750 -176 -137 -42 -424 -188 -575
-293 -186 -129 -358 -295 -467 -451 -67 -95 -148 -270 -180 -390 -27 -100 -28
-115 -27 -310 1 -230 11 -280 82 -410 39 -72 236 -275 377 -390 44 -36 100
-85 125 -109 103 -101 265 -194 493 -285 136 -54 190 -63 280 -46 146 27 165
64 213 415 18 130 14 238 -11 285 -8 16 -31 34 -55 44 -35 14 -50 14 -113 4
-123 -21 -180 -15 -357 37 -189 56 -295 106 -329 156 -22 32 -23 40 -18 144 3
61 13 137 22 170 52 186 205 427 362 567 82 72 275 169 408 203 183 47 420 44
682 -10 287 -59 485 -157 656 -326 155 -155 173 -316 71 -642 -59 -185 -203
-464 -339 -654 -111 -155 -159 -211 -440 -518 -245 -267 -369 -412 -417 -490
-14 -22 -40 -78 -59 -125 -31 -80 -33 -92 -33 -200 1 -104 4 -126 38 -230 52
-163 175 -410 221 -446 l36 -27 27 26 c15 14 53 37 84 50 69 31 83 54 92 162
15 173 65 325 147 450 58 89 575 604 705 703 51 38 175 128 275 201 279 199
390 281 432 316 75 65 158 196 238 376 104 237 123 473 63 769 -69 340 -314
727 -663 1050 -221 205 -358 280 -601 330 -58 11 -154 32 -215 45 -128 28
-292 36 -480 25z m427 -165 c289 -62 320 -75 468 -193 265 -212 466 -453 621
-744 117 -221 158 -369 166 -594 4 -96 1 -176 -6 -220 -19 -110 -74 -261 -143
-390 -78 -148 -157 -231 -338 -357 -107 -74 -304 -216 -484 -347 -134 -98
-660 -610 -750 -730 -46 -61 -107 -174 -119 -220 -3 -12 -13 -20 -28 -20 -21
0 -22 2 -16 67 5 49 18 90 47 152 48 100 107 177 255 331 522 546 717 810 895
1210 86 193 133 357 145 505 22 259 -114 586 -330 799 -245 241 -707 407
-1135 406 -306 -1 -592 -106 -783 -289 -172 -163 -334 -436 -378 -636 -21 -94
-16 -313 9 -406 43 -159 148 -329 241 -389 53 -33 142 -70 281 -115 144 -47
177 -64 191 -96 13 -33 6 -157 -12 -190 -32 -61 -212 33 -430 225 -25 23 -107
94 -182 159 -191 167 -260 273 -303 463 -53 239 42 619 206 829 153 196 325
350 523 468 237 141 434 220 755 303 291 75 364 77 634 19z"/>
<path d="M1960 1049 c-97 -20 -119 -30 -153 -68 -62 -69 -78 -132 -84 -331
-10 -306 20 -415 144 -539 80 -79 129 -106 198 -106 144 0 308 175 361 385 44
176 -26 393 -175 540 -111 110 -187 141 -291 119z m216 -294 c27 -41 30 -133
5 -213 -23 -78 -84 -176 -130 -209 -56 -42 -79 -25 -90 66 -9 78 3 196 28 280
17 57 25 70 53 83 18 9 52 17 75 17 35 1 46 -4 59 -24z"/>
</g>
</svg>
