<?xml version="1.0" standalone="no"?>
<!DOCTYPE svg PUBLIC "-//W3C//DTD SVG 20010904//EN"
 "http://www.w3.org/TR/2001/REC-SVG-20010904/DTD/svg10.dtd">
<svg version="1.0" xmlns="http://www.w3.org/2000/svg"
 width="567.000000pt" height="440.000000pt" viewBox="0 0 567.000000 440.000000"
 preserveAspectRatio="xMidYMid meet">

<g transform="translate(0.000000,440.000000) scale(0.100000,-0.100000)"
fill="#000000" stroke="none">
<path d="M3665 4113 c-183 -21 -433 -111 -620 -224 -245 -148 -471 -382 -584
-607 l-32 -64 -77 7 c-451 40 -896 247 -1333 620 -128 110 -200 131 -259 78
-42 -38 -60 -129 -60 -303 0 -283 87 -517 271 -732 27 -31 49 -58 49 -61 0 -2
-62 -4 -137 -4 -196 1 -243 -20 -243 -105 0 -82 130 -297 255 -423 71 -71 251
-205 276 -205 5 0 9 -4 9 -10 0 -5 -26 -10 -57 -10 -108 -1 -184 -59 -168
-130 16 -73 218 -289 378 -404 50 -36 154 -97 230 -135 l138 -68 -58 -47
c-154 -122 -338 -176 -600 -176 l-135 0 -34 -34 c-39 -39 -49 -100 -22 -134 6
-7 8 -15 5 -18 -8 -8 -156 11 -291 37 -89 18 -115 19 -147 10 -50 -15 -89 -62
-89 -109 0 -47 48 -92 219 -206 207 -139 552 -306 634 -306 18 0 50 -5 72 -10
160 -39 432 -70 605 -70 995 1 1964 570 2540 1494 176 281 315 614 373 891
l23 110 95 34 c215 77 505 193 522 209 50 45 61 124 26 181 -11 18 -30 36 -42
39 -19 5 -296 138 -305 147 -1 1 18 38 44 81 83 140 144 274 144 316 0 78 -50
128 -127 128 -21 0 -47 -6 -58 -13 -11 -7 -69 -31 -130 -52 -60 -21 -157 -58
-214 -81 -57 -24 -109 -44 -115 -43 -6 0 -33 27 -59 60 -120 148 -317 270
-522 320 -80 20 -302 33 -390 22z m330 -262 c44 -11 121 -41 172 -66 399 -201
509 -697 291 -1320 -216 -618 -611 -1136 -1143 -1497 -343 -234 -717 -381
-1115 -439 -233 -34 -609 -24 -820 22 -161 35 -257 63 -312 88 l-63 30 181 0
c171 1 183 2 215 24 77 52 78 141 2 193 l-32 21 61 17 c182 51 341 141 461
263 93 94 137 159 137 200 0 68 -27 90 -190 151 -117 44 -204 86 -284 137 -64
41 -206 154 -206 164 0 4 55 14 123 24 150 21 344 64 374 83 34 22 56 71 49
110 -11 56 -54 89 -132 102 -38 6 -111 18 -162 27 -159 27 -303 89 -422 181
-81 62 -200 191 -200 215 0 5 99 9 221 9 204 0 223 2 249 20 58 41 64 130 12
170 -141 107 -188 148 -257 222 -128 137 -205 284 -240 456 -26 128 -23 132
60 71 406 -300 800 -468 1229 -525 60 -8 150 -14 199 -14 77 0 96 3 131 24 23
13 47 35 53 48 6 13 32 66 56 119 95 206 241 372 443 505 140 92 321 164 464
184 101 14 303 4 395 -19z m842 -393 c-19 -29 -39 -62 -44 -72 -9 -16 -13 -11
-26 35 -9 29 -15 54 -14 56 12 12 113 49 115 42 2 -5 -12 -32 -31 -61z m173
-339 c0 -5 -2 -9 -4 -9 -2 0 -43 -14 -90 -31 -48 -17 -89 -29 -91 -27 -2 1 -6
45 -10 95 l-8 93 102 -56 c55 -31 101 -60 101 -65z"/>
<path d="M3529 3455 c-63 -34 -80 -156 -29 -210 69 -74 194 -40 221 58 14 54
-10 121 -55 148 -36 22 -100 24 -137 4z"/>
</g>
</svg>
