<?xml version="1.0" standalone="no"?>
<!DOCTYPE svg PUBLIC "-//W3C//DTD SVG 20010904//EN"
 "http://www.w3.org/TR/2001/REC-SVG-20010904/DTD/svg10.dtd">
<svg version="1.0" xmlns="http://www.w3.org/2000/svg"
 width="497.000000pt" height="289.000000pt" viewBox="0 0 497.000000 289.000000"
 preserveAspectRatio="xMidYMid meet">

<g transform="translate(0.000000,289.000000) scale(0.100000,-0.100000)"
fill="#000000" stroke="none">
<path d="M3215 2830 c-10 -11 -24 -43 -31 -72 -13 -49 -12 -55 17 -142 18 -50
62 -164 100 -253 95 -223 145 -352 154 -390 6 -31 5 -33 -19 -33 -15 0 -286
43 -603 95 -1394 231 -1792 291 -2550 386 -175 22 -182 22 -208 5 -31 -20 -31
-8 -6 -261 6 -55 15 -230 21 -390 12 -366 44 -643 135 -1187 44 -259 44 -278
5 -318 -23 -23 -28 -35 -21 -48 19 -35 130 -132 151 -132 22 0 62 35 90 78 19
28 123 53 665 158 405 78 1567 307 1880 370 99 20 256 54 349 76 93 22 172 36
177 31 5 -5 -1 -33 -12 -63 -109 -285 -209 -569 -209 -595 0 -25 9 -41 40 -69
69 -62 60 -67 341 185 96 86 251 227 344 314 163 152 399 358 737 643 199 168
204 180 101 250 -32 22 -115 87 -183 144 -69 57 -201 164 -295 238 -331 262
-527 425 -638 530 -44 41 -83 76 -87 78 -4 1 -83 84 -176 183 -199 213 -229
234 -269 189z m445 -541 c193 -157 357 -294 889 -743 135 -113 171 -148 165
-157 -3 -5 -125 -116 -272 -247 -147 -130 -317 -282 -377 -337 -216 -196 -516
-460 -525 -463 -21 -7 -7 37 64 207 95 226 99 240 94 317 -5 80 -32 114 -89
114 -21 0 -190 -38 -376 -84 -429 -107 -530 -130 -953 -211 -540 -103 -1425
-281 -1645 -329 -110 -25 -203 -41 -208 -37 -10 10 -41 173 -77 401 -72 464
-108 890 -113 1335 l-2 240 60 -3 c191 -9 886 -102 1335 -178 179 -30 415 -70
525 -89 110 -19 335 -57 500 -85 165 -28 411 -71 547 -95 136 -25 259 -45 273
-45 34 0 94 26 122 52 42 39 33 70 -126 442 -77 181 -89 224 -53 193 10 -8
118 -97 242 -198z"/>
</g>
</svg>
