<?xml version="1.0" standalone="no"?>
<!DOCTYPE svg PUBLIC "-//W3C//DTD SVG 20010904//EN"
 "http://www.w3.org/TR/2001/REC-SVG-20010904/DTD/svg10.dtd">
<svg version="1.0" xmlns="http://www.w3.org/2000/svg"
 width="609.000000pt" height="410.000000pt" viewBox="0 0 609.000000 410.000000"
 preserveAspectRatio="xMidYMid meet">

<g transform="translate(0.000000,410.000000) scale(0.100000,-0.100000)"
fill="#000000" stroke="none">
<path d="M2704 4085 c-288 -52 -530 -217 -711 -485 -16 -25 -56 -94 -88 -155
-32 -60 -58 -111 -59 -112 -1 -1 -33 18 -71 43 -120 78 -175 89 -420 88 -245
0 -324 -14 -510 -92 -161 -68 -191 -87 -290 -186 -80 -81 -98 -105 -158 -222
-61 -119 -128 -302 -141 -389 -29 -179 -32 -299 -11 -421 27 -158 76 -258 183
-375 29 -31 52 -61 51 -65 0 -5 -39 -28 -87 -52 -130 -63 -228 -157 -286 -272
-61 -123 -80 -213 -74 -359 6 -128 31 -219 95 -342 102 -196 298 -337 563
-404 236 -60 725 -58 964 5 76 20 180 67 258 116 l37 24 31 -64 c37 -78 141
-209 202 -254 25 -19 90 -50 144 -70 l99 -37 305 -2 c349 -3 390 0 390 26 0
20 99 56 129 46 13 -4 33 7 65 34 25 21 59 42 77 46 64 14 244 149 340 255
l72 81 60 -93 c115 -181 231 -298 357 -364 54 -29 58 -29 248 -32 176 -3 198
-2 260 19 233 76 432 226 578 435 108 156 144 260 144 420 0 55 -5 126 -10
159 -11 70 -11 71 75 105 150 59 305 184 389 313 49 75 113 246 138 367 28
134 21 346 -15 475 -37 132 -65 196 -127 288 -109 161 -267 253 -475 277 -191
23 -435 5 -610 -44 -129 -37 -124 -38 -108 37 23 103 20 295 -6 412 -31 137
-71 216 -145 290 -104 104 -230 149 -416 149 -232 2 -429 -78 -603 -244 l-75
-71 -18 48 c-54 147 -128 314 -161 363 -57 84 -180 201 -251 238 -62 33 -171
62 -227 61 -16 0 -62 -7 -101 -14z m220 -171 c54 -19 154 -106 202 -176 16
-24 32 -45 35 -48 18 -14 57 -113 120 -298 41 -121 78 -215 91 -229 15 -16 33
-23 57 -23 32 0 43 8 101 72 154 172 201 213 301 261 121 58 207 77 330 73 86
-2 104 -6 170 -38 153 -73 203 -165 224 -408 9 -99 -8 -217 -50 -344 -28 -84
-32 -110 -25 -136 21 -73 75 -77 233 -15 198 76 342 105 517 105 305 -1 477
-91 580 -304 60 -124 83 -248 77 -416 -5 -157 -31 -258 -98 -392 -77 -153
-224 -269 -419 -329 -41 -13 -88 -32 -103 -42 -27 -18 -28 -23 -24 -71 2 -28
12 -85 21 -126 23 -100 18 -241 -12 -325 -43 -117 -181 -288 -311 -384 -126
-94 -331 -171 -452 -171 -74 0 -174 25 -229 57 -99 58 -167 141 -304 371 -73
122 -96 144 -152 144 -40 0 -80 -32 -116 -92 -66 -108 -229 -255 -355 -318
-254 -128 -642 -188 -858 -132 -101 26 -169 60 -233 116 -87 76 -117 137 -179
364 -23 84 -53 107 -116 87 -21 -7 -35 -25 -61 -81 -58 -126 -126 -174 -306
-219 -215 -53 -562 -60 -768 -16 -124 27 -285 89 -362 141 -230 153 -324 494
-202 734 68 133 188 213 428 284 55 16 74 27 87 49 38 64 17 102 -86 163 -136
79 -237 213 -265 353 -18 84 -13 270 9 380 22 109 108 334 161 423 77 128 244
244 418 291 169 46 407 64 531 41 75 -14 166 -59 219 -108 25 -23 50 -42 55
-42 6 0 35 19 65 43 45 36 66 63 114 153 69 127 122 199 226 308 123 129 239
209 363 251 141 47 251 53 351 19z"/>
<path d="M2333 2195 c-114 -50 -86 -245 35 -245 46 0 107 60 117 114 18 91
-71 167 -152 131z"/>
<path d="M3400 2173 c-47 -18 -101 -102 -103 -159 -2 -66 50 -114 125 -114 98
0 150 178 73 250 -22 21 -70 33 -95 23z"/>
<path d="M3001 1735 c-62 -39 -116 -50 -208 -42 -74 7 -103 -3 -103 -37 0 -70
174 -111 303 -70 63 20 127 77 127 114 0 20 -41 70 -57 70 -5 0 -33 -16 -62
-35z"/>
<path d="M4712 1628 c-19 -19 -14 -54 14 -111 15 -29 28 -54 30 -56 6 -7 35
22 50 50 32 63 -48 163 -94 117z"/>
<path d="M4526 1354 c-16 -16 -21 -50 -10 -78 7 -19 45 -21 62 -4 25 25 5 98
-28 98 -5 0 -16 -7 -24 -16z"/>
<path d="M4202 1106 c1 -10 8 -17 13 -17 15 1 12 24 -3 29 -9 3 -13 -2 -10
-12z"/>
</g>
</svg>
