<?xml version="1.0" standalone="no"?>
<!DOCTYPE svg PUBLIC "-//W3C//DTD SVG 20010904//EN"
 "http://www.w3.org/TR/2001/REC-SVG-20010904/DTD/svg10.dtd">
<svg version="1.0" xmlns="http://www.w3.org/2000/svg"
 width="400.000000pt" height="623.000000pt" viewBox="0 0 400.000000 623.000000"
 preserveAspectRatio="xMidYMid meet">

<g transform="translate(0.000000,623.000000) scale(0.100000,-0.100000)"
fill="#000000" stroke="none">
<path d="M2040 6208 c-65 -24 -113 -108 -155 -268 -64 -247 -96 -355 -108
-366 -6 -6 -57 -31 -112 -56 -289 -128 -487 -295 -669 -567 -68 -100 -155
-278 -194 -397 -73 -221 -159 -631 -196 -939 -8 -71 -27 -223 -41 -336 -14
-113 -28 -278 -32 -365 l-6 -159 -93 -92 c-164 -164 -253 -316 -328 -558 -42
-135 -58 -248 -63 -455 -6 -219 2 -272 60 -390 41 -83 91 -135 143 -149 59
-16 99 1 124 50 28 53 25 120 -9 285 -17 76 -33 177 -36 224 -7 84 7 281 25
350 5 19 14 58 21 85 16 66 51 135 108 215 l46 65 8 -95 c19 -235 55 -381 114
-464 65 -91 294 -345 345 -383 28 -21 77 -51 108 -68 173 -91 203 -103 290
-120 l92 -18 -6 -116 c-3 -64 -9 -276 -12 -472 l-6 -356 -149 -6 c-165 -6
-208 -20 -227 -75 -32 -92 90 -144 338 -141 145 1 232 17 265 49 22 22 24 64
43 741 5 174 12 322 16 328 5 8 76 11 227 11 188 0 220 -2 225 -15 4 -9 1
-254 -5 -546 -14 -606 -18 -569 69 -588 67 -14 305 -14 389 0 85 15 119 33
135 70 18 42 10 71 -29 109 -40 39 -153 70 -254 70 l-64 0 6 128 c4 70 9 260
12 422 3 162 8 313 11 336 l5 40 227 63 c286 79 397 130 506 232 208 195 374
526 408 815 6 57 15 101 19 97 19 -19 59 -147 69 -221 14 -101 -2 -336 -31
-472 -11 -52 -25 -130 -31 -172 -9 -67 -8 -81 6 -103 34 -51 141 -19 194 59
77 113 135 481 112 714 -6 59 -15 133 -21 164 -31 177 -135 378 -253 485 -30
28 -57 61 -60 74 -3 13 -10 105 -16 204 -6 99 -13 198 -15 220 -2 22 -6 81
-10 130 -38 542 -54 683 -112 964 -98 483 -316 807 -673 1004 -82 45 -242 100
-353 123 -99 19 -87 2 -132 184 -40 160 -122 347 -173 393 -28 25 -64 35 -92
25z m76 -200 c13 -26 24 -52 24 -58 0 -6 -29 -10 -70 -10 l-70 0 6 28 c9 38
32 93 46 110 14 17 26 4 64 -70z m77 -201 c5 -21 7 -40 5 -43 -5 -4 -261 -42
-265 -39 -2 1 7 29 18 64 l21 62 106 -3 106 -3 9 -38z m41 -152 c7 -18 -1 -20
-178 -40 -192 -21 -192 -21 -163 20 11 15 34 19 128 25 192 12 206 11 213 -5z
m267 -198 c186 -56 333 -142 472 -276 98 -95 181 -211 226 -317 106 -249 184
-634 206 -1006 3 -59 8 -127 11 -150 2 -24 8 -99 14 -168 6 -69 14 -173 20
-231 20 -230 33 -793 22 -927 -17 -192 -67 -334 -188 -537 -54 -90 -141 -201
-151 -191 -2 2 7 46 21 97 53 194 96 440 112 640 7 90 -9 445 -27 589 -10 81
-62 296 -116 480 -14 47 -47 131 -73 187 -44 92 -59 113 -147 202 -135 135
-257 203 -453 252 -82 20 -120 24 -270 24 -188 0 -247 -9 -392 -61 -199 -72
-370 -168 -475 -267 -150 -142 -332 -443 -421 -697 -119 -342 -133 -571 -68
-1102 12 -98 19 -178 15 -178 -13 0 -89 94 -110 137 -56 115 -67 423 -36 1018
37 731 63 925 181 1367 52 194 78 264 153 408 188 366 526 635 898 714 108 24
118 24 310 22 161 -3 189 -6 266 -29z m-199 -1442 c97 -8 228 -49 332 -103
104 -53 209 -146 267 -235 51 -79 115 -249 139 -372 7 -33 26 -103 42 -155 37
-121 59 -354 61 -645 2 -226 -5 -287 -64 -560 -68 -316 -90 -400 -110 -417
-35 -30 -398 -141 -549 -167 -253 -44 -583 -39 -910 15 -132 22 -155 29 -255
78 -60 30 -133 72 -161 93 -54 40 -143 134 -162 169 -6 12 -16 95 -22 185 -6
90 -13 189 -15 219 -36 416 -1 721 112 995 127 305 319 577 485 687 116 77
310 162 443 194 66 16 237 33 280 28 11 -2 50 -5 87 -9z m1380 -1270 c53 -70
125 -220 147 -306 58 -229 49 -535 -23 -770 -24 -79 -65 -143 -82 -126 -3 3 8
63 24 134 47 193 52 234 53 409 1 221 -25 317 -133 483 -47 72 -48 75 -48 153
0 93 7 96 62 23z m-3148 -111 c14 -36 6 -81 -19 -104 -38 -36 -122 -162 -165
-247 -71 -144 -101 -297 -101 -518 0 -149 10 -223 57 -435 25 -112 5 -163 -51
-126 -33 21 -100 165 -116 245 -9 50 -9 103 0 250 22 337 86 548 236 769 48
72 137 182 146 182 4 0 10 -7 13 -16z m1115 -1428 c3 -2 3 -51 0 -108 -4 -56
-8 -276 -9 -488 -1 -212 -5 -396 -9 -410 -10 -37 -85 -51 -251 -47 -135 4
-221 20 -203 38 5 5 81 14 168 20 105 7 165 16 174 24 14 14 14 10 37 764 l7
223 40 -6 c22 -4 43 -8 46 -10z m717 -298 c-11 -553 -11 -657 2 -670 6 -6 72
-17 146 -24 128 -12 210 -35 190 -53 -34 -29 -410 -45 -433 -18 -8 10 -8 127
-1 428 5 228 10 465 10 527 l0 112 46 0 47 0 -7 -302z"/>
<path d="M2282 5273 c-7 -3 -19 -18 -28 -35 -39 -76 40 -158 102 -105 66 57 6
172 -74 140z"/>
<path d="M1763 5195 c-44 -19 -59 -67 -36 -114 36 -73 110 -61 135 20 10 34 9
46 -3 67 -18 32 -57 43 -96 27z"/>
<path d="M2255 5009 c-33 -4 -152 -17 -265 -29 -237 -25 -274 -33 -306 -65
-35 -35 -31 -71 14 -115 70 -70 172 -83 427 -55 147 16 275 39 304 55 50 26
65 93 35 151 -26 51 -105 72 -209 58z m145 -89 c24 -24 25 -32 3 -58 -19 -22
-125 -43 -313 -62 -134 -14 -197 -12 -265 5 -54 15 -105 46 -105 66 0 15 102
37 200 44 52 4 127 11 165 15 39 4 121 8 183 9 100 1 114 -1 132 -19z"/>
<path d="M3095 4580 c-3 -5 1 -10 9 -10 9 0 16 5 16 10 0 6 -4 10 -9 10 -6 0
-13 -4 -16 -10z"/>
<path d="M3156 4399 c-8 -12 -12 -28 -9 -35 8 -20 47 -17 68 6 15 16 15 22 5
35 -18 21 -46 19 -64 -6z"/>
<path d="M3176 4237 c-23 -17 -13 -57 14 -57 30 0 52 28 40 51 -12 22 -29 24
-54 6z"/>
</g>
</svg>
