<?xml version="1.0" standalone="no"?>
<!DOCTYPE svg PUBLIC "-//W3C//DTD SVG 20010904//EN"
 "http://www.w3.org/TR/2001/REC-SVG-20010904/DTD/svg10.dtd">
<svg version="1.0" xmlns="http://www.w3.org/2000/svg"
 width="521.000000pt" height="479.000000pt" viewBox="0 0 521.000000 479.000000"
 preserveAspectRatio="xMidYMid meet">

<g transform="translate(0.000000,479.000000) scale(0.100000,-0.100000)"
fill="#000000" stroke="none">
<path d="M2355 4296 c-255 -58 -479 -227 -630 -474 -28 -46 -43 -61 -54 -57
-80 31 -216 30 -310 -1 -30 -10 -86 -41 -125 -69 -198 -143 -231 -365 -82
-559 l38 -48 -90 -92 c-189 -193 -245 -346 -207 -566 37 -210 131 -311 355
-382 64 -19 93 -23 195 -21 66 1 133 3 148 5 27 3 30 -1 60 -77 112 -281 250
-399 497 -424 95 -10 233 1 320 26 70 20 199 83 259 127 54 40 138 127 166
171 10 17 20 32 21 34 2 2 27 -20 56 -49 60 -60 120 -101 225 -154 184 -92
390 -116 548 -62 187 64 313 209 359 413 20 89 20 142 1 260 -15 93 -44 183
-84 261 l-21 41 57 39 c177 120 283 312 283 510 0 205 -87 405 -235 541 -157
143 -356 204 -588 180 -87 -9 -252 -39 -349 -64 -25 -6 -29 -2 -74 86 -147
285 -313 406 -569 415 -71 2 -131 -1 -170 -10z m283 -91 c185 -44 306 -160
438 -418 49 -97 63 -109 93 -83 34 29 331 86 451 86 252 0 485 -142 598 -365
46 -92 62 -154 62 -245 -1 -97 -13 -148 -56 -237 -60 -120 -218 -263 -292
-263 -32 0 -33 -1 -29 -32 2 -18 22 -61 45 -96 102 -158 137 -352 91 -507 -69
-233 -279 -380 -518 -362 -139 10 -266 57 -378 138 -117 85 -153 130 -153 192
0 22 -6 37 -15 41 -23 9 -75 -26 -75 -51 0 -31 -91 -163 -162 -233 -68 -67
-179 -128 -283 -156 -93 -24 -266 -29 -349 -10 -189 45 -300 162 -397 419 -20
55 -38 87 -47 87 -8 0 -20 8 -27 17 -12 16 -16 16 -65 0 -151 -49 -401 8 -518
117 -122 114 -145 300 -59 481 30 61 57 97 162 204 147 151 146 145 57 250
-30 35 -64 85 -75 109 -55 126 40 294 213 376 60 29 73 31 172 31 58 0 108 -2
111 -5 3 -3 7 -24 10 -48 5 -46 19 -68 35 -58 6 4 22 30 35 59 60 131 189 297
304 392 81 67 223 139 323 165 91 23 212 25 298 5z"/>
<path d="M2800 1532 c-63 -31 -100 -109 -100 -212 0 -68 26 -115 75 -136 48
-20 172 -36 219 -28 48 8 111 63 126 110 23 68 -11 179 -66 223 -30 24 -146
61 -190 61 -16 0 -45 -8 -64 -18z m205 -76 c67 -44 87 -148 39 -205 -25 -30
-28 -31 -114 -31 -80 0 -92 3 -117 24 -26 22 -28 30 -28 93 0 129 41 172 141
148 29 -7 65 -20 79 -29z"/>
<path d="M2488 1100 c-71 -39 -102 -137 -59 -192 11 -14 48 -37 82 -53 101
-45 186 -26 233 54 38 66 21 134 -48 185 -40 30 -157 34 -208 6z m167 -44 c39
-17 58 -46 53 -84 -2 -19 -10 -28 -25 -30 -12 -2 -27 -10 -33 -18 -17 -20
-119 -19 -148 2 -34 24 -30 78 9 115 36 33 87 39 144 15z"/>
<path d="M2123 854 c-3 -9 -17 -27 -29 -40 -66 -65 23 -156 120 -124 42 13 56
35 56 84 0 39 -19 62 -67 82 -43 18 -72 18 -80 -2z m95 -81 c4 -29 -28 -46
-61 -34 -45 17 -41 42 8 54 34 8 50 3 53 -20z"/>
</g>
</svg>
