<?xml version="1.0" standalone="no"?>
<!DOCTYPE svg PUBLIC "-//W3C//DTD SVG 20010904//EN"
 "http://www.w3.org/TR/2001/REC-SVG-20010904/DTD/svg10.dtd">
<svg version="1.0" xmlns="http://www.w3.org/2000/svg"
 width="520.000000pt" height="480.000000pt" viewBox="0 0 520.000000 480.000000"
 preserveAspectRatio="xMidYMid meet">

<g transform="translate(0.000000,480.000000) scale(0.100000,-0.100000)"
fill="#000000" stroke="none">
<path d="M2416 4740 c-98 -17 -342 -158 -482 -280 -77 -66 -183 -187 -243
-275 -58 -86 -338 -478 -508 -710 -148 -203 -657 -959 -757 -1124 -118 -195
-293 -576 -331 -719 -47 -183 -40 -295 27 -432 59 -122 159 -219 288 -282 136
-66 279 -109 442 -134 159 -24 566 -29 778 -10 97 8 179 11 183 7 5 -5 4 -32
-2 -61 -27 -124 -8 -294 55 -494 34 -110 68 -158 129 -181 67 -26 114 -10 186
65 108 113 203 364 224 592 l7 77 47 6 c75 10 253 42 421 75 62 12 133 20 170
18 l65 -3 -5 -170 c-10 -335 -7 -394 23 -451 51 -100 134 -155 243 -162 145
-10 252 94 327 318 33 98 50 267 39 380 -5 47 -7 88 -3 92 5 6 60 16 176 32
94 13 125 19 220 37 55 11 123 27 150 35 153 46 190 59 300 101 217 83 329
147 413 237 126 133 174 341 142 606 -24 191 -90 350 -216 515 -103 137 -160
231 -309 510 -70 132 -146 269 -168 305 -113 178 -350 493 -487 645 -253 280
-443 465 -552 538 -125 83 -457 269 -503 281 -59 17 -415 28 -489 16z m392
-135 c30 -3 72 -15 95 -27 90 -45 366 -213 437 -266 84 -62 290 -267 486 -482
114 -128 168 -195 325 -405 92 -123 192 -287 307 -500 183 -339 219 -400 302
-510 86 -112 158 -228 184 -295 55 -140 74 -366 42 -504 -43 -185 -134 -261
-471 -399 -233 -95 -457 -148 -762 -183 -65 -7 -115 -21 -138 -38 -18 -13 -19
-23 -15 -88 2 -40 4 -136 4 -213 0 -119 -4 -151 -23 -215 -66 -210 -149 -286
-250 -229 -83 46 -92 89 -82 399 9 260 3 336 -24 356 -31 23 -171 18 -390 -12
-22 -3 -70 -12 -107 -20 -37 -7 -82 -16 -100 -19 -18 -3 -67 -12 -108 -20 -41
-8 -101 -17 -132 -21 -89 -9 -97 -20 -113 -156 -17 -142 -44 -261 -85 -367
-34 -88 -97 -189 -129 -208 -18 -11 -22 -10 -35 15 -21 41 -64 188 -77 266
-15 88 -6 221 21 306 26 86 25 115 -5 145 -30 31 -62 32 -348 9 -270 -21 -612
-15 -782 15 -149 26 -223 49 -350 110 -80 38 -110 59 -151 104 -103 112 -132
201 -115 348 11 95 25 138 105 326 139 328 164 372 602 1028 274 410 363 537
451 641 23 29 125 175 225 325 267 403 337 484 523 614 146 102 237 153 295
169 53 15 234 15 388 1z"/>
<path d="M2851 3934 c-39 -32 -49 -51 -60 -109 -18 -94 24 -178 89 -178 65 0
113 79 114 189 1 64 -2 76 -23 98 -33 35 -79 35 -120 0z"/>
<path d="M2192 3840 c-66 -65 -81 -201 -27 -247 36 -31 73 -29 116 7 47 38 63
96 49 172 -17 93 -81 125 -138 68z"/>
<path d="M3405 3578 c-11 -6 -69 -48 -130 -93 -252 -187 -392 -247 -713 -305
-354 -64 -557 -67 -684 -10 -96 42 -199 48 -233 13 -9 -9 -15 -33 -15 -61 1
-170 110 -337 303 -466 128 -85 210 -110 362 -109 107 1 137 5 275 41 321 84
525 184 665 328 137 140 229 350 251 570 5 54 4 64 -15 83 -24 24 -37 25 -66
9z m-110 -282 c7 -53 -5 -96 -26 -96 -17 0 -63 27 -82 48 -18 20 -17 21 35 61
29 22 56 40 60 40 4 1 10 -23 13 -53z m-215 -196 c0 -85 -3 -110 -13 -110 -27
0 -133 60 -166 94 l-34 35 84 39 c92 42 110 50 122 51 4 1 7 -48 7 -109z
m-1323 -32 c-3 -8 -6 -5 -6 6 -1 11 2 17 5 13 3 -3 4 -12 1 -19z m989 0 c-39
-176 -57 -223 -84 -209 -28 16 -80 74 -117 131 -30 49 -32 56 -17 63 14 6 154
30 210 36 8 1 11 -7 8 -21z m-831 -24 c36 -9 65 -19 65 -23 0 -15 -129 -133
-139 -127 -12 8 -16 148 -4 159 8 9 4 10 78 -9z m445 -25 c0 -19 -119 -183
-152 -208 -30 -24 -31 -24 -44 -6 -17 23 -34 82 -43 153 -9 62 -12 60 119 65
47 2 93 4 103 5 9 1 17 -3 17 -9z m557 -89 c37 -22 70 -40 75 -40 45 0 -122
-93 -190 -106 l-33 -7 27 74 c41 113 43 119 49 119 3 0 36 -18 72 -40z m-456
-21 c18 -35 90 -109 137 -141 24 -17 40 -34 35 -38 -4 -4 -46 -20 -93 -35 -68
-22 -110 -28 -215 -32 -91 -3 -139 -1 -160 8 l-30 12 43 8 c67 13 103 41 182
144 40 52 76 95 81 95 5 0 13 -10 20 -21z m-422 -71 c7 -31 23 -73 37 -94 14
-20 23 -38 20 -41 -8 -8 -100 44 -141 80 l-40 34 50 46 c28 25 53 42 56 39 3
-4 11 -33 18 -64z"/>
<path d="M3875 2463 c0 -163 -9 -207 -71 -342 -41 -90 -92 -154 -153 -193 -53
-33 -91 -45 -212 -63 -49 -7 -103 -21 -121 -32 -48 -28 -78 -78 -78 -130 0
-124 115 -193 317 -193 273 1 587 281 678 605 11 38 19 114 22 205 4 126 2
152 -14 195 -17 47 -21 50 -53 50 -49 0 -60 -28 -49 -125 14 -111 -9 -295 -47
-386 -26 -62 -93 -154 -168 -232 -153 -159 -287 -216 -449 -193 -88 12 -127
36 -127 77 0 34 17 41 128 53 134 16 209 42 276 98 72 60 161 201 191 303 54
185 29 439 -45 448 l-25 3 0 -148z"/>
<path d="M1156 2438 c-20 -32 -30 -188 -17 -273 16 -101 75 -215 150 -291 110
-111 168 -139 362 -174 148 -26 209 -48 229 -83 13 -24 13 -29 -2 -54 -28 -47
-72 -63 -173 -63 -117 0 -144 8 -302 86 -185 92 -326 214 -379 329 -29 64 -58
233 -49 291 5 35 2 47 -14 63 -45 45 -84 19 -102 -67 -10 -47 -9 -72 4 -147
23 -130 42 -184 85 -251 49 -75 99 -126 198 -201 81 -61 113 -80 269 -156 107
-53 167 -67 284 -67 103 0 170 18 227 60 96 70 104 200 17 282 -50 47 -101 64
-313 103 -108 20 -176 53 -249 121 -108 100 -165 256 -170 471 -1 12 -10 27
-21 33 -16 8 -22 6 -34 -12z"/>
</g>
</svg>
