<?xml version="1.0" standalone="no"?>
<!DOCTYPE svg PUBLIC "-//W3C//DTD SVG 20010904//EN"
 "http://www.w3.org/TR/2001/REC-SVG-20010904/DTD/svg10.dtd">
<svg version="1.0" xmlns="http://www.w3.org/2000/svg"
 width="431.000000pt" height="579.000000pt" viewBox="0 0 431.000000 579.000000"
 preserveAspectRatio="xMidYMid meet">

<g transform="translate(0.000000,579.000000) scale(0.100000,-0.100000)"
fill="#000000" stroke="none">
<path d="M1905 5389 c-223 -48 -505 -164 -722 -297 -278 -171 -562 -455 -747
-747 -83 -131 -210 -393 -252 -520 -119 -362 -135 -750 -46 -1125 131 -548
427 -936 904 -1189 102 -54 290 -130 386 -157 43 -12 62 -22 62 -33 0 -9 -7
-124 -15 -256 -8 -132 -15 -280 -15 -329 0 -80 -2 -87 -17 -81 -85 35 -138 27
-196 -30 -96 -93 -110 -215 -36 -300 70 -79 223 -118 377 -96 114 16 191 41
207 66 13 21 28 418 29 788 1 141 4 179 15 186 8 5 80 12 160 16 80 4 190 10
244 14 l97 7 0 -41 c0 -39 -25 -556 -36 -742 l-6 -93 -43 0 c-117 0 -234 -90
-254 -194 -19 -102 28 -181 120 -206 70 -19 279 21 396 75 128 60 132 70 133
295 0 91 7 259 15 375 8 116 15 305 15 420 l0 210 78 29 c163 60 426 210 599
340 111 84 322 294 406 405 301 393 464 795 498 1224 11 134 5 357 -11 457 -5
30 -12 73 -15 95 -15 104 -79 313 -136 440 -56 127 -180 318 -272 422 -68 76
-124 64 -152 -33 -18 -62 -35 -94 -74 -137 -36 -40 -68 -54 -142 -66 -73 -12
-107 -33 -131 -81 -36 -71 -45 -75 -181 -75 -139 0 -161 7 -237 80 -25 24 -55
46 -66 49 -13 4 -49 -3 -85 -15 -127 -44 -231 -21 -310 69 -53 60 -79 135 -79
225 0 108 -9 117 -121 117 -83 0 -92 2 -115 25 -14 14 -37 51 -51 81 -24 53
-25 63 -20 163 3 58 9 118 12 132 8 33 -16 59 -53 58 -15 0 -67 -9 -117 -20z
m27 -204 c-4 -108 10 -178 51 -246 39 -65 95 -106 178 -128 l63 -18 13 -63
c49 -243 256 -390 497 -352 l76 12 51 -39 c32 -24 79 -47 127 -61 65 -20 90
-22 181 -17 127 7 192 27 234 74 18 19 43 47 57 62 17 18 40 30 68 35 68 10
136 50 200 117 l59 61 42 -64 c61 -92 165 -308 201 -418 130 -401 105 -890
-67 -1318 -214 -530 -674 -998 -1198 -1217 -456 -190 -981 -219 -1390 -75
-256 91 -474 228 -665 420 -123 124 -208 243 -292 411 -81 162 -122 285 -157
479 -78 424 3 901 218 1289 23 41 41 76 41 78 0 13 153 230 211 299 260 312
561 530 934 677 72 29 241 84 265 86 3 1 4 -37 2 -84z m624 -4117 c-10 -461
-25 -791 -37 -819 -12 -30 -53 -52 -141 -75 -87 -22 -94 -23 -174 -30 -68 -6
-73 -5 -87 17 -21 32 -11 73 25 109 36 37 85 51 135 39 60 -14 109 -11 124 8
17 20 33 585 24 845 l-6 166 33 10 c43 14 68 19 92 21 19 1 19 -8 12 -291z
m-853 225 c10 -6 6 -237 -10 -726 l-6 -197 -41 -11 c-55 -15 -221 -14 -274 2
-48 14 -92 59 -92 93 0 36 42 91 72 94 22 3 39 -8 83 -52 62 -62 98 -72 131
-35 18 20 19 44 22 436 l3 415 52 -6 c28 -4 55 -10 60 -13z"/>
<path d="M1849 3599 c-33 -36 -64 -128 -55 -165 7 -28 60 -64 94 -64 57 0 112
62 112 126 0 41 -37 109 -66 122 -38 18 -53 15 -85 -19z"/>
<path d="M1293 3576 c-39 -44 -63 -101 -63 -148 0 -50 94 -104 131 -75 19 15
42 57 69 131 23 61 18 84 -24 118 -37 30 -70 23 -113 -26z"/>
<path d="M1623 3158 l-61 -32 -40 18 c-48 22 -62 16 -62 -29 0 -25 8 -40 31
-59 45 -38 85 -39 164 -2 69 31 92 64 73 103 -7 15 -20 29 -28 30 -8 2 -43
-11 -77 -29z"/>
<path d="M3202 2668 c-19 -19 -14 -44 13 -75 l25 -28 20 24 c24 28 25 40 4 69
-17 24 -43 29 -62 10z"/>
<path d="M3093 2444 c-8 -22 8 -64 29 -77 35 -23 68 49 36 81 -17 17 -58 15
-65 -4z"/>
<path d="M2910 2264 c-9 -10 -10 -18 -2 -26 12 -12 32 -2 32 17 0 21 -16 26
-30 9z"/>
</g>
</svg>
